<?xml version="1.0" encoding="utf-8"?>
<!-- Generator: Adobe Illustrator 24.2.1, SVG Export Plug-In . SVG Version: 6.00 Build 0)  -->
<svg version="1.1" id="Layer_1" xmlns="http://www.w3.org/2000/svg" xmlns:xlink="http://www.w3.org/1999/xlink" x="0px" y="0px"
	 viewBox="0 0 1920 1080" style="enable-background:new 0 0 1920 1080;" xml:space="preserve">
<style type="text/css">
	.st0{fill:#39B54A;}
	.st1{fill:#F9F9F9;}
	.st2{fill:#FFFFFF;stroke:#39B54A;stroke-width:6;stroke-miterlimit:10;}
	.st3{fill:#FFFFFF;stroke:#39B54A;stroke-width:4;stroke-miterlimit:10;}
	.st4{fill:#FFFFFF;stroke:#39B54A;stroke-width:5;stroke-miterlimit:10;}
</style>
<circle class="st0" cx="1039.87" cy="522.09" r="200.7"/>
<g>
	<g>
		<g>
			<g>
				<path class="st1" d="M913.85,606.73c-3.82,6.86-6.86,17.18-6.86,23.69c0,1.51,0,3.43,0.37,6.09l-47.74-82.11
					c-1.53-2.66-2.67-6.49-2.67-9.93c0-3.45,1.14-7.64,2.67-10.31l22.92-40.1l-25.59-14.5l83.26-1.54l40.48,72.94l-25.96-14.89
					L913.85,606.73z M950.53,375.3c7.25-12.62,19.1-19.49,33.6-19.49c15.67,0,27.89,7.27,36.67,22.14l12.99,21.77l-45.08,77.93
					l-72.94-42.4L950.53,375.3z M955.86,672.79c-21.77,0-39.71-17.95-39.71-39.72c0-6.11,2.68-16.43,6.5-22.92l12.21-21.77h90.53
					v84.4L955.86,672.79L955.86,672.79z M1028.44,372.99c-5.72-9.92-13.36-16.81-22.53-20.63h93.94c8.4,0,14.89,3.45,18.73,9.95
					l23.29,39.72l25.2-14.91l-40.5,72.58l-82.86-1.17l25.59-14.5L1028.44,372.99z M1173.2,589.16c11.44,0,21-3.06,29.02-9.15
					l-47.37,82.48c-3.82,6.49-10.68,10.31-18.7,10.31h-44.7v29.41l-42.77-71.41l42.77-71.43v29.8L1173.2,589.16L1173.2,589.16z
					 M1209.84,520.41c3.45,6.11,5.36,12.6,5.36,19.48c0,13.75-8.79,28.27-21,35.13c-5.74,3.07-13.77,4.99-21.77,4.99h-25.23
					l-45.05-77.93l72.94-41.63L1209.84,520.41z"/>
			</g>
		</g>
	</g>
</g>
<g id="Bottle">
	<path class="st2" d="M1055.34,445.37h-38.38c-2.57,0-4.66-2.09-4.66-4.66v-16.22c0-2.57,2.09-4.66,4.66-4.66h38.38
		c2.57,0,4.66,2.09,4.66,4.66v16.22C1060,443.29,1057.92,445.37,1055.34,445.37z"/>
	<path class="st2" d="M1019.88,447.89l-1.76,8.27c-3.1,0.97-7.48,2.75-11.61,6.12c-9.69,7.89-10.63,18.42-10.78,21.22
		c0,6.06,0,12.11,0,18.17c0.65,0.65,1.67,1.48,3.11,2.16c2.98,1.39,5.87,1.21,7.05,1.08c20.88,0,41.75,0,62.62,0
		c0.61,0.09,3.35,0.45,5.81-1.08c1.26-0.79,1.94-1.75,2.28-2.34c0-6.71,0-13.43,0-20.14c-0.94-3.36-3.27-9.69-9.33-15.83
		c-5.18-5.24-10.85-8.09-14.31-9.53c-0.17-2.7-0.35-5.4-0.52-8.09H1019.88z"/>
	<rect x="1001.21" y="507.07" class="st2" width="69.88" height="31.66"/>
	<path class="st2" d="M1069.15,590.68h-61.85c-7.09,0-12.83-5.74-12.83-12.83v-21.34c0-7.09,5.74-12.83,12.83-12.83h61.85
		c7.09,0,12.83,5.74,12.83,12.83v21.34C1081.98,584.94,1076.24,590.68,1069.15,590.68z"/>
</g>
<g id="hand">
	<path class="st3" d="M909.73,497.92c43.78,0,66.04,0,66.04,0c0,0,0.73-7.17,4.09-12.94c0.78-1.34,3.72-6.39,9.19-8.85
		c1.88-0.84,4.36-1.75,4.78-1.89c2.95-0.98,4.01-1,6.45-1.77c4.09-1.29,3.9-2.12,6.47-2.81c5.93-1.6,11.34,1.6,11.75,1.85
		c0.77,0.47,4.07,2.59,5.9,6.6c1.04,2.28,0.7,3.19,1.75,7.55c0.45,1.86,1.09,3.74,2.38,7.49c1.89,5.5,2.03,5.36,4.77,12.94
		c2.37,6.55,2.29,6.75,3.11,8c1.52,2.33,3,3.54,2.68,5.28c-0.15,0.81-0.52,0.77-2.94,3.53c-1.92,2.2-2.22,2.83-3.53,3.79
		c-1.07,0.78-2.01,1.19-2.68,1.48c-3.24,1.38-6.11,1.36-6.68,1.35c-3.97-0.08-6.89-1.7-8.17-2.53c-0.84-0.35-1.74-0.78-2.68-1.28
		c-1.26-0.67-2.36-1.37-3.32-2.04c-2.47-2.77-4.94-5.53-7.4-8.3l-7.79-16.85c-0.06,3.21,0.25,7.72,1.91,12.77
		c0.9,2.72,2,5.02,3.06,6.89c0.79,1.81,1.86,3.91,3.32,6.13c1.6,2.42,3.26,4.37,4.72,5.87c1.66,1.79,3.32,3.57,4.98,5.36h3.19
		l-0.26,11.36l-0.77,7.91l-1.15,9.57l-2.94,11.49l-1.02,6.64l0.26,8.17l-14.3-2.68l-9.19-4.98l-4.47-6.38l-2.43-4.72l-1.15-8.04
		h-67.96V497.92z"/>
	<path class="st4" d="M1085.85,510.89h-32.21c-5.05-2.04-8.11-7.07-7.53-12.13c0.48-4.21,3.41-7.85,7.53-9.45
		c10.74,0,21.47,0,32.21,0c4.79,1.27,8.2,5.5,8.39,10.34C1094.44,504.81,1090.96,509.53,1085.85,510.89z"/>
	<path class="st4" d="M1086.78,534.41h-36.83c-5.78-2.1-9.27-7.3-8.61-12.52c0.55-4.34,3.9-8.11,8.61-9.75c12.28,0,24.55,0,36.83,0
		c5.48,1.32,9.37,5.68,9.59,10.67C1096.61,528.13,1092.63,533,1086.78,534.41z"/>
	<path class="st4" d="M1085.87,554.94h-32.24c-5.06-1.85-8.12-6.44-7.54-11.05c0.48-3.83,3.41-7.16,7.54-8.61
		c10.75,0,21.49,0,32.24,0c4.8,1.16,8.21,5.02,8.4,9.42C1094.47,549.39,1090.98,553.69,1085.87,554.94z"/>
	<path class="st4" d="M1084.1,573.7h-29.34c-4.6-1.66-7.39-5.77-6.86-9.9c0.44-3.43,3.1-6.41,6.86-7.71c9.78,0,19.56,0,29.34,0
		c4.36,1.04,7.47,4.5,7.64,8.44C1091.93,568.73,1088.76,572.58,1084.1,573.7z"/>
</g>
<polygon class="st0" points="1012.41,525.7 1011.9,535.53 1003.17,525.7 1001.21,520.09 1004.49,518.5 "/>
<polygon class="st0" points="1017.13,527.02 1017.13,537.38 1008.26,527.07 "/>
<polygon class="st0" points="1011.01,534.41 1015.09,534.41 1011.01,527.02 "/>
<polygon class="st0" points="1011.01,535.92 1014.15,540.43 1014.15,535.92 "/>
</svg>
